Coordinates
version=1
nRows=13
nColumns=40
inDegrees=yes

Units are S.I. units (second, meters, Newtons, ...)
If the header above contains a line with 'inDegrees', this indicates whether rotational values are in degrees (yes) or radians (no).

endheader
time	pelvis_tilt	pelvis_list	pelvis_rotation	pelvis_tx	pelvis_ty	pelvis_tz	hip_flexion_r	hip_adduction_r	hip_rotation_r	knee_angle_r	knee_angle_r_beta	ankle_angle_r	subtalar_angle_r	mtp_angle_r	hip_flexion_l	hip_adduction_l	hip_rotation_l	knee_angle_l	knee_angle_l_beta	ankle_angle_l	subtalar_angle_l	mtp_angle_l	lumbar_extension	lumbar_bending	lumbar_rotation	arm_flex_r	arm_add_r	arm_rot_r	elbow_flex_r	pro_sup_r	wrist_flex_r	wrist_dev_r	arm_flex_l	arm_add_l	arm_rot_l	elbow_flex_l	pro_sup_l	wrist_flex_l	wrist_dev_l
      0.89000000	     -0.26864457	      8.14843440	    -89.82419385	      0.19545324	      0.92599732	      0.51235586	      6.01677176	      2.59578884	      1.51104653	      2.76087504	      0.04818636	      7.08840350	      0.00000000	      0.00000000	     37.27915665	     -4.64300240	     -5.45409727	     64.52513410	      1.12617604	      0.68494541	     -0.00000000	     -0.00000000	     -3.46136332	      0.50781501	     -4.24018388	      0.00000000	      0.00000000	      0.00000000	      0.00000000	      0.00000000	     -0.00000000	     -0.00000000	     -0.00000000	     -0.00000000	      0.00000000	      0.00000000	      0.00000000	      0.00000000	      0.00000000
      0.90000000	     -0.00011285	      8.19209340	    -89.83735030	      0.19518667	      0.92601055	      0.52760666	      4.20619336	      2.33817794	      1.59761590	      1.30935018	      0.02285247	      7.29161409	      0.00000000	      0.00000000	     38.41710938	     -4.10076189	     -5.47382060	     61.70769400	      1.07700243	      1.24049847	      0.00000000	      0.00000000	     -3.52331700	      0.20057015	     -4.26838227	      0.00000000	      0.00000000	      0.00000000	      0.00000000	      0.00000000	      0.00000000	      0.00000000	      0.00000000	      0.00000000	      0.00000000	      0.00000000	      0.00000000	      0.00000000	      0.00000000
      0.91000000	      0.23184611	      8.21717034	    -89.85056493	      0.19493675	      0.92542364	      0.54290591	      2.44343260	      2.12034871	      1.66974603	      0.00185953	      0.00003245	      7.58746432	      0.00000000	     -0.00000000	     39.37666925	     -3.58784105	     -5.44842640	     58.58672738	      1.02253129	      1.70088742	      0.00000000	     -0.00000000	     -3.60265549	     -0.05240053	     -4.29075743	     -0.00000000	     -0.00000000	      0.00000000	      0.00000000	      0.00000000	     -0.00000000	      0.00000000	      0.00000000	     -0.00000000	     -0.00000000	      0.00000000	      0.00000000	     -0.00000000	     -0.00000000
      0.92000000	     -0.16747641	      8.67695334	    -89.85401225	      0.19424554	      0.92323644	      0.55755280	      1.54853964	      2.63543517	      1.07459722	     -0.64288919	     -0.01122053	      7.93015287	     -0.00000000	     -0.00000000	     40.92307034	     -3.79191738	     -5.12849444	     55.55036298	      0.96953673	      2.24427993	     -0.00000000	      0.00000000	     -3.22957723	      0.41370399	     -4.34390704	     -0.00000000	      0.00000000	      0.00000000	      0.00000000	      0.00000000	     -0.00000000	     -0.00000000	     -0.00000000	      0.00000000	      0.00000000	      0.00000000	      0.00000000	     -0.00000000	      0.00000000
      0.93000000	      0.49248305	      8.30085665	    -89.87062567	      0.19437679	      0.92234262	      0.57350757	     -0.84483872	      1.91643022	      1.88903246	     -2.17054092	     -0.03788309	      8.52280522	      0.00000000	      0.00000000	     40.89619365	     -2.78364452	     -5.24522472	     51.48526047	      0.89858731	      2.22472247	      0.00000000	      0.00000000	     -3.72213323	     -0.34757545	     -4.31494575	      0.00000000	      0.00000000	      0.00000000	      0.00000000	      0.00000000	      0.00000000	      0.00000000	      0.00000000	      0.00000000	      0.00000000	      0.00000000	      0.00000000	      0.00000000	      0.00000000
      0.94000000	      0.53994354	      8.33429758	    -89.87821089	      0.19411472	      0.91997121	      0.58882088	     -2.40677892	      1.90834314	      1.95539812	     -3.06270117	     -0.05345422	      9.09088359	      0.00000000	      0.00000000	     41.43456853	     -2.47388534	     -5.08529506	     47.53215060	      0.82959253	      2.27156437	      0.00000000	      0.00000000	     -3.79532639	     -0.39849049	     -4.34143988	      0.00000000	      0.00000000	      0.00000000	      0.00000000	      0.00000000	      0.00000000	      0.00000000	      0.00000000	      0.00000000	      0.00000000	      0.00000000	      0.00000000	      0.00000000	      0.00000000
      0.95000000	      0.51435546	      8.29697204	    -89.88510304	      0.19379746	      0.91718499	      0.60422335	     -4.02168028	      1.99235713	      1.99319531	     -3.88522661	     -0.06781000	      9.71468196	      0.00000000	      0.00000000	     41.75572142	     -2.26341811	     -4.90306066	     43.34004396	      0.75642647	      2.12430164	     -0.00000000	      0.00000000	     -3.94438369	     -0.38415198	     -4.34958154	      0.00000000	     -0.00000000	      0.00000000	      0.00000000	      0.00000000	      0.00000000	     -0.00000000	     -0.00000000	     -0.00000000	      0.00000000	      0.00000000	      0.00000000	     -0.00000000	     -0.00000000
      0.96000000	      0.41193152	      8.21305530	    -89.89088284	      0.19350079	      0.91402085	      0.61970332	     -5.66227520	      2.16611035	      1.98485919	     -4.64334052	     -0.08104158	     10.35160780	      0.00000000	      0.00000000	     41.89834506	     -2.13525430	     -4.67579785	     38.96922698	      0.68014132	      1.81973041	      0.00000000	      0.00000000	     -4.15357250	     -0.28647060	     -4.36899141	      0.00000000	      0.00000000	      0.00000000	      0.00000000	      0.00000000	      0.00000000	      0.00000000	      0.00000000	      0.00000000	      0.00000000	      0.00000000	      0.00000000	      0.00000000	      0.00000000
      0.97000000	      0.20032720	      8.19433388	    -89.89631942	      0.19315442	      0.91033266	      0.63527365	     -7.20021112	      2.46349168	      2.01842878	     -5.30647355	     -0.09261544	     11.07970319	      0.00000000	      0.00000000	     42.02828825	     -2.14229329	     -4.41937697	     34.53167227	      0.60269138	      1.32613250	      0.00000000	      0.00000000	     -4.25834891	     -0.07607249	     -4.33483221	      0.00000000	      0.00000000	      0.00000000	      0.00000000	      0.00000000	      0.00000000	      0.00000000	      0.00000000	      0.00000000	      0.00000000	      0.00000000	      0.00000000	      0.00000000	      0.00000000
      0.98000000	     -0.04812119	      8.06521944	    -89.90040861	      0.19284057	      0.90645156	      0.65107257	     -8.86329531	      2.80440225	      1.97707286	     -5.95309286	     -0.10390107	     11.81720692	      0.00000000	      0.00000000	     41.94484204	     -2.20091531	     -4.17826747	     30.10021656	      0.52534788	      0.65959586	      0.00000000	      0.00000000	     -4.47528134	      0.17590209	     -4.31176193	      0.00000000	      0.00000000	      0.00000000	      0.00000000	      0.00000000	      0.00000000	      0.00000000	      0.00000000	      0.00000000	      0.00000000	      0.00000000	      0.00000000	      0.00000000	      0.00000000
      0.99000000	     -0.34437786	      7.84837996	    -89.90363602	      0.19261092	      0.90237795	      0.66705878	    -10.57784541	      3.19472711	      1.83034141	     -6.49029800	     -0.11327707	     12.44951840	      0.00000000	      0.00000000	     41.71352111	     -2.30793842	     -3.88259126	     25.82630622	      0.45075408	      0.07151540	      0.00000000	      0.00000000	     -4.78384045	      0.47526322	     -4.33661000	      0.00000000	      0.00000000	      0.00000000	      0.00000000	      0.00000000	      0.00000000	      0.00000000	      0.00000000	      0.00000000	      0.00000000	      0.00000000	      0.00000000	      0.00000000	      0.00000000
      1.00000000	     -0.70944839	      7.70069748	    -89.90684879	      0.19241131	      0.89790913	      0.68322885	    -12.16240948	      3.65126306	      1.75866858	     -6.87762597	     -0.12003722	     13.21472987	      0.00000000	      0.00000000	     41.56886157	     -2.48960263	     -3.51563521	     21.90578236	      0.38232803	     -0.54693606	      0.00000000	      0.00000000	     -4.97975442	      0.83977564	     -4.32139372	      0.00000000	      0.00000000	      0.00000000	      0.00000000	      0.00000000	      0.00000000	      0.00000000	      0.00000000	      0.00000000	      0.00000000	      0.00000000	      0.00000000	      0.00000000	      0.00000000
      1.01000000	     -1.22106074	      7.70782577	    -89.90900554	      0.19223998	      0.89295679	      0.69942466	    -13.46494806	      4.25204642	      1.76454888	     -7.03156107	     -0.12272389	     14.01605318	      0.00000000	      0.00000000	     41.66512635	     -2.79132581	     -2.84118345	     18.53756612	      0.32354156	     -0.86287064	      0.00000000	      0.00000000	     -4.98709877	      1.37005882	     -4.25654800	      0.00000000	      0.00000000	      0.00000000	      0.00000000	      0.00000000	      0.00000000	      0.00000000	      0.00000000	      0.00000000	      0.00000000	      0.00000000	      0.00000000	      0.00000000	      0.00000000
